<svg width="16" height="14" viewBox="0 0 16 14" fill="none" xmlns="http://www.w3.org/2000/svg">
<path d="M0.979725 6.1748C0.979725 6.1748 8.05677 3.36467 10.5117 2.37413C11.4517 1.97929 14.6417 0.713062 14.6417 0.713062C14.6417 0.713062 16.1148 0.158718 15.9917 1.5047C15.9517 2.05806 15.6248 3.99778 15.2968 6.09505C14.8068 9.06373 14.2748 12.3081 14.2748 12.3081C14.2748 12.3081 14.1928 13.2189 13.4977 13.3773C12.8017 13.5349 11.6568 12.823 11.4517 12.6645C11.2888 12.5464 8.38477 10.7652 7.32173 9.89469C7.03473 9.65741 6.70673 9.18189 7.36173 8.62853C8.83477 7.32189 10.5928 5.69922 11.6568 4.67029C12.1468 4.19569 12.6388 3.08701 10.5928 4.43299C7.68873 6.37271 4.82573 8.19229 4.82573 8.19229C4.82573 8.19229 4.17073 8.58813 2.94373 8.23165C1.71673 7.87621 0.285729 7.40261 0.285729 7.40261C0.285729 7.40261 -0.696271 6.8089 0.980725 6.17579L0.979725 6.1748Z" fill="white"/>
</svg>
