<svg width="16" height="13" viewBox="0 0 16 13" fill="none" xmlns="http://www.w3.org/2000/svg">
<path d="M14.3998 2.11837C14.1374 2.19197 13.867 2.23757 13.6006 2.29517L13.587 2.25597C14.1698 1.87325 14.6029 1.30142 14.8134 0.636768C14.7638 0.660768 14.739 0.670368 14.7166 0.683168C14.1931 0.981845 13.6283 1.20155 13.0406 1.33517C12.9542 1.35437 12.907 1.32717 12.8486 1.27517C12.7038 1.14717 12.5614 1.01117 12.4022 0.904768C11.303 0.168768 9.879 0.239168 8.875 1.10237C8.1262 1.74637 7.7662 2.58237 7.8134 3.58957C7.8214 3.76077 7.847 3.93197 7.8662 4.12397C5.3902 3.95197 3.3654 2.89037 1.7566 0.963968C1.38141 1.62482 1.2659 2.40175 1.4326 3.14317C1.5966 3.90957 2.0134 4.51277 2.627 4.99197C2.40312 4.97523 2.18117 4.93855 1.9638 4.88237C1.7526 4.82237 1.5502 4.72877 1.335 4.64637C1.3366 5.36317 1.551 5.99517 1.983 6.55037C2.415 7.10557 2.979 7.45197 3.651 7.64077C3.44331 7.68551 3.23261 7.71492 3.0206 7.72877C2.8126 7.74157 2.6038 7.73197 2.3806 7.73197C2.8662 8.98797 3.7694 9.67677 5.1278 9.79997C3.8318 10.8024 2.3934 11.2 0.799805 11.0616C0.953405 11.1664 1.099 11.272 1.259 11.3472C1.6878 11.5488 2.115 11.7568 2.5558 11.9272C3.2334 12.188 3.9398 12.3272 4.6622 12.376C5.6294 12.4424 6.5846 12.3728 7.5262 12.124C8.17619 11.9545 8.80239 11.7043 9.3902 11.3792C9.807 11.1472 10.1982 10.8784 10.5694 10.576C11.0229 10.2141 11.4302 9.79791 11.7822 9.33677C12.0846 8.93197 12.3654 8.50797 12.6222 8.07197C12.9894 7.44957 13.2462 6.77437 13.4366 6.07597C13.6678 5.23117 13.7726 4.36717 13.7462 3.48797C13.7446 3.43357 13.7854 3.36317 13.827 3.32397C14.0238 3.14237 14.2326 2.97597 14.427 2.79117C14.7199 2.50738 14.9791 2.19091 15.1998 1.84797C14.923 1.94237 14.6646 2.04477 14.3998 2.11917V2.11837Z" fill="white"/>
</svg>
