<svg width="16" height="16" viewBox="0 0 16 16" fill="none" xmlns="http://www.w3.org/2000/svg">
<path d="M8.85205 1.96348C8.80589 1.95716 8.75109 1.95295 8.69197 1.94874C8.44973 1.93189 7.94573 1.89608 7.97529 1.38843C7.98827 1.16866 8.08925 0.800049 8.62133 0.800049C8.68029 0.800049 8.73805 0.803961 8.78853 0.807385L8.79437 0.807769C8.79821 0.808017 8.80205 0.808273 8.80589 0.808513C8.84541 0.811057 8.88165 0.813393 8.91261 0.813393C8.92581 0.813601 8.93909 0.812897 8.95221 0.811281C8.96517 0.809177 8.97821 0.809177 8.99261 0.809177C12.3351 0.918713 15.232 3.87398 15.1902 7.13188C15.1902 7.17305 15.192 7.21909 15.194 7.2683L15.1945 7.27933C15.2053 7.49558 15.2168 7.7645 15.0395 7.94494C14.9371 8.04885 14.7951 8.10149 14.6156 8.10149H14.5983C14.0276 8.09101 14.0186 7.57343 14.0143 7.32401C14.0136 7.2545 14.0121 7.18805 14.0049 7.13398C13.5918 3.9477 12.0986 2.45006 8.85205 1.96348ZM13.6415 11.0947C13.7098 11.148 13.7788 11.2004 13.8484 11.252C14.3704 11.6403 15.0208 12.124 14.6646 13.1028C14.2587 14.2199 12.9356 15.2 11.834 15.2H11.8152C11.7956 15.2 11.7759 15.1973 11.7568 15.1924C11.7223 15.1832 11.6747 15.1727 11.6199 15.1608C11.4576 15.1256 11.2363 15.0772 11.0251 14.9888C8.68333 14.0064 6.66165 12.6998 5.01709 11.1038C3.33648 9.47349 2.00409 7.49769 1.056 5.2319C0.728671 4.44833 0.714251 3.69494 1.01706 3.05319C1.33069 2.38967 1.95651 1.88695 2.82962 1.60118C3.15516 1.48759 3.51125 1.48858 3.83612 1.60399C4.59604 1.87571 6.39922 4.27069 6.44392 5.06621C6.48213 5.76763 5.92913 6.13345 5.63137 6.33004C5.10793 6.6769 5.01133 7.10238 5.30909 7.75397C5.92481 9.10133 7.00197 10.1223 8.50885 10.7879C8.66757 10.8638 8.84109 10.9061 9.01781 10.9121C9.27237 10.9121 9.47925 10.79 9.64941 10.5386C10.0344 9.97197 10.5002 9.68413 11.0352 9.68413C11.4317 9.68413 11.8513 9.83933 12.3185 10.1588L12.5769 10.3345C12.9312 10.5757 13.2969 10.8246 13.6415 11.0947ZM8.46053 4.94052C8.59821 4.55154 8.99117 4.54171 9.17933 4.5375C9.67973 4.52556 10.2291 4.77974 10.6848 5.2305C11.1397 5.67986 11.4064 6.24438 11.4007 6.74149C11.4165 7.21824 11.2384 7.48154 10.8708 7.52366C10.8478 7.52644 10.8247 7.52785 10.8016 7.52788C10.4966 7.52788 10.258 7.28705 10.2226 6.943C10.1469 6.20366 9.76693 5.80625 9.02797 5.6911C8.82461 5.6588 8.60037 5.59982 8.48357 5.41025C8.40357 5.28035 8.39565 5.12308 8.46053 4.94052ZM9.29749 2.69366C11.4972 2.95134 13.273 4.8127 13.2557 6.84326L13.255 6.84256C13.2552 6.85194 13.2547 6.86133 13.2536 6.87064C13.2479 6.90721 13.2499 6.96141 13.252 7.01924L13.2521 7.0223C13.2593 7.2309 13.2743 7.66478 12.7871 7.73707C12.738 7.7441 12.6904 7.74761 12.6472 7.74761C12.1242 7.74761 12.0943 7.27504 12.0799 7.04627L12.0798 7.04477C12.0794 7.03958 12.079 7.03442 12.0787 7.02929C12.0748 6.97399 12.0712 6.92218 12.0639 6.87977C11.7388 4.97067 11.0732 4.29452 9.09637 3.86411C9.05077 3.85431 8.99701 3.84695 8.94037 3.83918L8.92765 3.83743C8.71637 3.80934 8.45325 3.77424 8.30397 3.57694C8.21533 3.45969 8.18573 3.30873 8.21677 3.12968C8.24845 2.94642 8.36885 2.63749 8.82021 2.63749C8.93277 2.64024 9.04485 2.65198 9.15549 2.67259C9.20589 2.68102 9.25349 2.68874 9.29749 2.69366Z" fill="white"/>
</svg>
