<svg width="16" height="15" viewBox="0 0 16 15" fill="none" xmlns="http://www.w3.org/2000/svg">
<path d="M5.77717 14.4H8.86404V8.97408C8.86404 8.68368 8.88404 8.3936 8.96556 8.186C9.18876 7.60582 9.69668 7.00492 10.5494 7.00492C11.6664 7.00492 12.1132 7.89592 12.1132 9.20208V14.4H15.1998V8.82888C15.1998 5.84453 13.6769 4.45585 11.646 4.45585C9.98068 4.45585 9.24964 5.42965 8.84348 6.09294H8.86412V4.68385H5.77725C5.81776 5.59554 5.77717 14.4 5.77717 14.4ZM4.06915 14.4V4.68385H0.982285V14.4H4.06915ZM2.5257 3.35727C3.60216 3.35727 4.27216 2.61118 4.27216 1.67878C4.25209 0.72539 3.60216 0 2.54612 0C1.4902 0 0.799805 0.72539 0.799805 1.67878C0.799805 2.61118 1.46966 3.35727 2.50558 3.35727H2.5257Z" fill="white"/>
</svg>
